<svg width="119" height="19" viewBox="0 0 119 19" fill="none" xmlns="http://www.w3.org/2000/svg">
<path fill-rule="evenodd" clip-rule="evenodd" d="M93.5121 5.14822C94.8624 5.14822 96.1284 5.8234 96.7191 6.58298V0H100.011V18.6518H96.7191V17.3014C96.2972 17.9766 95.1156 18.905 93.5121 18.905C89.5454 18.905 87.5199 16.1199 87.5199 12.0688C87.5199 8.01773 89.5454 5.14822 93.5121 5.14822ZM94.0184 16.0355C95.7064 16.0355 97.0567 14.6007 97.0567 11.9844C97.0567 9.36808 95.7064 7.93333 94.0184 7.93333C92.3305 7.93333 90.9801 9.36808 90.9801 11.9844C90.9801 14.6007 92.3305 16.0355 94.0184 16.0355ZM0.506383 8.85968C0.928369 6.66536 2.8695 5.14621 5.57021 5.14621C8.69291 5.14621 11.1404 6.49656 11.1404 10.7164V18.5654H8.43972L8.10213 16.8774C7.17376 18.059 5.9078 18.8185 4.05106 18.8185C1.77234 18.8185 0 17.3838 0 14.7675C0 12.1512 2.36312 10.4632 5.65461 10.4632H7.84894V9.87245C7.84894 8.3533 6.75177 7.93131 5.48581 7.93131C4.55745 7.93131 3.62908 8.2689 3.20709 9.45046L0.506383 8.85968ZM4.81064 16.0334C6.32979 16.0334 7.84894 15.0207 7.84894 13.3327V13.0795H5.73901C4.30425 12.9951 3.46028 13.5859 3.46028 14.7675C3.46028 15.3583 3.96667 16.0334 4.81064 16.0334ZM64.1417 8.85968C64.5637 6.66536 66.5049 5.14621 69.2056 5.14621C72.3283 5.14621 74.7758 6.49656 74.7758 10.7164V18.5654H72.0751L71.7375 16.8774C70.8091 18.059 69.5432 18.8185 67.6864 18.8185C65.4077 18.8185 63.6354 17.3838 63.6354 14.7675C63.6354 12.1512 65.9985 10.4632 69.29 10.4632H71.4843V9.87245C71.4843 8.3533 70.3871 7.93131 69.1212 7.93131C68.1928 7.93131 67.2644 8.2689 66.8424 9.45046L64.1417 8.85968ZM68.446 16.0334C69.9651 16.0334 71.4843 15.0207 71.4843 13.3327V13.0795H69.29C67.8552 13.0795 67.0112 13.5859 67.0112 14.7675C67.0956 15.3583 67.602 16.0334 68.446 16.0334ZM77.7297 5.315V18.6497L81.0212 18.5654V13.8391C81.0212 9.61926 82.6248 8.01571 84.5659 8.01571C85.0723 8.01571 85.4943 8.1845 85.9163 8.4377L86.507 5.3994C86.0007 5.23061 85.4943 5.14621 84.9035 5.14621C83.4688 5.14621 81.9496 5.90578 81.0212 7.50933V5.315H77.7297ZM109.885 9.03167L111.826 7.25933C111.067 5.99337 109.463 5.065 107.775 4.98061C105.243 4.98061 103.555 6.83734 103.555 8.86288C103.555 10.8884 104.821 11.8168 106.256 12.4076C106.639 12.5687 107.026 12.7058 107.395 12.8361C108.569 13.2517 109.547 13.5978 109.547 14.4331C109.547 15.3615 108.872 15.8678 107.859 15.8678C106.509 15.8678 105.665 14.9395 105.159 13.6735L102.542 15.1083C103.133 16.7118 104.99 18.6529 107.775 18.6529C110.645 18.6529 112.501 16.7118 112.501 14.2643C112.501 11.8247 110.235 11.0688 108.425 10.465C108.168 10.3795 107.921 10.297 107.691 10.2132C106.931 9.96004 106.425 9.53805 106.425 8.94727C106.425 8.2721 107.016 7.85011 107.691 7.85011C108.366 7.85011 109.294 8.1877 109.885 9.03167ZM43.802 5.31859L41.4389 14.5179L39.1602 5.31859H36.1219L33.9276 14.5179L32.0708 9.20086L31.8176 9.79164L30.8049 13.2519L32.4928 18.6533H35.3623L37.641 10.0448L39.9197 18.6533H42.8736L47.0935 5.31859H43.802ZM57.2213 14.5179L59.5844 5.31859H62.8759L58.5717 18.6533H55.7022L53.4235 10.0448L51.1447 18.6533H48.2752L46.5029 13.2519L47.6001 9.79164L47.8533 9.20086L49.71 14.5179L51.9043 5.31859H54.9426L57.2213 14.5179ZM31.3112 5.31859L27.0914 18.5689H24.2219L21.9431 10.0448L19.6644 18.6533H16.7949L12.5751 5.40298H15.8665L18.2297 14.5179L20.5084 5.40298H23.5467L25.8254 14.5179L28.1885 5.40298L31.3112 5.31859ZM119 16.5396C119 15.2736 118.072 14.3453 116.806 14.3453C115.54 14.3453 114.611 15.2736 114.611 16.5396C114.611 17.8056 115.54 18.7339 116.806 18.7339C118.072 18.7339 119 17.8056 119 16.5396Z" fill="white"/>
</svg>
