<svg width="30" height="27" viewBox="0 0 30 27" fill="none" xmlns="http://www.w3.org/2000/svg">
<path fill-rule="evenodd" clip-rule="evenodd" d="M23.0682 0.479492L23.2947 0.719997C23.7221 1.1737 23.9703 1.85695 24.0448 2.52448C24.1191 3.19015 24.0266 3.89497 23.71 4.39247L23.5629 4.62371L23.5345 4.66823L23.5175 4.67636L23.2846 4.78721C22.7824 5.02625 22.0382 5.01314 21.355 4.86486C20.6666 4.71544 19.9626 4.4121 19.5389 3.99151L19.2852 3.73971L19.6087 3.58779C20.1574 3.33011 20.8925 3.30407 21.5745 3.44536C22.1429 3.56309 22.7096 3.80423 23.1301 4.16458C22.8701 3.73063 22.7065 3.15534 22.6423 2.60073C22.5653 1.93547 22.6226 1.22288 22.8983 0.762895L23.0682 0.479492ZM19.6037 0.591959L19.8958 0.603585C20.4435 0.625385 21.0077 0.942334 21.4339 1.3546C21.8601 1.7668 22.1961 2.32053 22.232 2.87091L22.2525 3.18554L21.9415 3.13379C21.4591 3.05353 20.925 2.80015 20.493 2.42001C20.0597 2.03878 19.7111 1.51359 19.6375 0.882328L19.6037 0.591959ZM10.4014 0.591965L10.3667 0.882999C10.2915 1.5138 9.94303 2.03879 9.50949 2.42005C9.07719 2.80023 8.5428 3.05359 8.05862 3.13382H7.76832V2.87037C7.80539 2.32032 8.14149 1.76676 8.56811 1.35452C8.99481 0.94219 9.55948 0.625368 10.1086 0.603584L10.4014 0.591965ZM8.35024 2.53993C8.63351 2.43587 8.9259 2.26743 9.1793 2.04459C9.45563 1.80158 9.67562 1.50306 9.7916 1.1657C9.49561 1.25976 9.18501 1.4537 8.91555 1.71408C8.65523 1.96562 8.45619 2.25706 8.35024 2.53993ZM20.2119 1.16577C20.3271 1.503 20.5469 1.80152 20.8232 2.04463C21.0763 2.2673 21.3683 2.43564 21.6507 2.53971C21.5452 2.25698 21.3464 1.96559 21.0863 1.71399C20.8171 1.45366 20.507 1.25983 20.2119 1.16577ZM23.1807 1.40327C23.106 1.71733 23.0899 2.11902 23.139 2.54324C23.1893 2.97825 23.3041 3.39943 23.4637 3.73008C23.564 3.3991 23.5942 2.99527 23.5479 2.57994C23.4997 2.14843 23.3719 1.73291 23.1807 1.40327ZM5.95677 2.52498C6.03129 1.85738 6.27975 1.17401 6.70832 0.720261L6.93101 0.501421L7.10447 0.763341C7.38025 1.22317 7.43723 1.93575 7.35998 2.60095C7.29567 3.15474 7.1322 3.72916 6.8729 4.16298C7.29371 3.80355 7.85983 3.56293 8.42739 3.44536C9.10941 3.30409 9.84415 3.33008 10.3922 3.58785L10.7154 3.73988L10.4619 3.99151C10.0382 4.41205 9.33492 4.71542 8.64676 4.86485C7.9637 5.01318 7.21976 5.02618 6.71646 4.78733L6.48423 4.67713L6.43813 4.62299L6.29176 4.39298C5.9752 3.89553 5.88246 3.19074 5.95677 2.52498ZM6.53809 3.73062C6.43768 3.3996 6.40733 2.99575 6.45368 2.58045C6.50189 2.14855 6.63 1.73271 6.82192 1.40297C6.89658 1.71694 6.91262 2.11876 6.86332 2.54327C6.81279 2.97838 6.69787 3.39975 6.53809 3.73062ZM25.477 2.73236L25.6842 2.98856C26.0925 3.49335 26.2958 4.22265 26.32 4.92256C26.3441 5.62064 26.1915 6.34443 25.8255 6.8346L25.6451 7.07622L25.3258 7.18205C24.7273 7.30942 24.0062 7.1443 23.3824 6.82933C22.757 6.51351 22.1801 6.02232 21.8926 5.43918L21.7429 5.13542L22.0773 5.0818C22.7392 4.97566 23.4511 5.17201 24.0558 5.49995C24.489 5.73486 24.8849 6.04675 25.1834 6.39002C24.9963 5.9458 24.8955 5.40585 24.8751 4.88855C24.8476 4.18992 24.9636 3.45446 25.2861 3.00093L25.477 2.73236ZM3.68085 4.92273C3.70452 4.22266 3.90807 3.49322 4.31725 2.98837L4.54019 2.76284L4.7151 3.00075C5.03815 3.45432 5.15436 4.18988 5.12706 4.88846C5.1069 5.4044 5.00688 5.94279 4.82126 6.38627C5.11955 6.0445 5.51413 5.73401 5.94587 5.49994C6.55077 5.17198 7.2629 4.97568 7.92546 5.08179L8.2602 5.1354L8.11007 5.43935C7.82212 6.02238 7.24502 6.51353 6.61939 6.82935C5.99546 7.1443 5.27423 7.30941 4.67547 7.18206L4.38663 7.11225L4.17865 6.83505C3.81089 6.3449 3.65723 5.62098 3.68085 4.92273ZM5.19076 6.72337C5.56365 6.70747 5.98815 6.5879 6.39408 6.38299C6.81533 6.17035 7.1892 5.87948 7.44523 5.55577C7.03239 5.57711 6.59311 5.71778 6.18418 5.93949C5.79106 6.15263 5.44384 6.4311 5.19076 6.72337ZM4.48361 3.65284C4.30109 4.01803 4.19632 4.47368 4.18056 4.93963C4.16539 5.38836 4.2336 5.81887 4.37282 6.16211C4.5192 5.79888 4.6091 5.33835 4.62744 4.86894C4.6454 4.40913 4.59332 3.97909 4.48361 3.65284ZM25.5177 3.65385C25.4084 3.98 25.3566 4.40961 25.3747 4.86884C25.3932 5.3381 25.4833 5.79841 25.63 6.16153C25.7682 5.8184 25.8357 5.3882 25.8203 4.9398C25.8042 4.47422 25.6996 4.01892 25.5177 3.65385ZM20.243 3.90731C20.5742 4.11181 21.0073 4.27776 21.4611 4.37623C21.9097 4.47361 22.3411 4.49705 22.6809 4.44615C22.3544 4.20645 21.9272 4.02903 21.4731 3.93497C21.0399 3.84524 20.6073 3.83652 20.243 3.90731ZM7.32049 4.44611C7.64741 4.2064 8.07481 4.02901 8.52881 3.93497C8.96193 3.84525 9.39424 3.83653 9.758 3.90725C9.42702 4.11179 8.99416 4.27776 8.54065 4.37624C8.09229 4.4736 7.66076 4.49707 7.32049 4.44611ZM22.5572 5.55578C22.813 5.87947 23.1867 6.17034 23.6078 6.38301C24.0136 6.5879 24.438 6.70746 24.8107 6.72337C24.5577 6.43112 24.2105 6.15263 23.8175 5.93948C23.4086 5.71778 22.9696 5.57714 22.5572 5.55578ZM27.6658 5.92429L27.7861 6.22921C28.0359 6.86253 28.0282 7.65524 27.8368 8.36454C27.6461 9.07153 27.2589 9.74558 26.6951 10.1089L26.4705 10.2536L26.4225 10.2845L26.419 10.2868L26.1342 10.2733C25.4788 10.2477 24.7725 9.88532 24.206 9.39066C23.6381 8.89471 23.1693 8.22982 23.0249 7.54813L22.9691 7.24644H23.2777C23.9807 7.26979 24.6751 7.66977 25.2219 8.17986C25.6494 8.57856 26.0102 9.06617 26.2312 9.54737C26.1659 9.02392 26.2342 8.41988 26.3867 7.86828C26.5815 7.16365 26.9336 6.47333 27.4035 6.12094L27.6658 5.92429ZM23.6263 7.8011C23.8044 8.23186 24.1313 8.66159 24.5349 9.01405C24.92 9.35035 25.3519 9.59634 25.7542 9.70799C25.5635 9.31189 25.256 8.89539 24.8809 8.54548C24.4915 8.1823 24.0527 7.91223 23.6263 7.8011ZM26.7219 9.43807C27.0035 9.14006 27.2248 8.71357 27.3541 8.23429C27.485 7.74905 27.5135 7.23875 27.4304 6.79837C27.2016 7.09403 27.0015 7.52102 26.8686 8.00153C26.7312 8.49852 26.6771 9.01249 26.7219 9.43807ZM3.58258 10.2874L3.58347 10.2846L3.86927 10.2733C4.52402 10.2474 5.23053 9.88509 5.79711 9.3905C6.36511 8.89466 6.83413 8.22975 6.97753 7.54774L7.04311 7.23587L6.72459 7.24644C6.02136 7.26979 5.32695 7.66976 4.78027 8.17989C4.35124 8.58023 3.98947 9.07022 3.76907 9.55338C3.83521 9.02848 3.76662 8.42197 3.61352 7.86839C3.41867 7.16388 3.06702 6.47376 2.59847 6.12161L2.34193 5.93949L2.21571 6.22972C1.96589 6.86298 1.97329 7.65565 2.16448 8.36498C2.35505 9.072 2.74213 9.7461 3.30622 10.1094L3.53262 10.2552L3.58258 10.2874ZM2.57122 6.79959C2.48815 7.23985 2.51653 7.74989 2.64725 8.23486C2.7764 8.714 2.99753 9.14035 3.27905 9.43832C3.32348 9.01261 3.26905 8.49863 3.13161 8.00167C2.99885 7.52165 2.79915 7.0951 2.57122 6.79959ZM4.24882 9.70786C4.65102 9.5961 5.08309 9.35009 5.46829 9.01383C5.87214 8.66129 6.19905 8.23157 6.37664 7.80091C5.94989 7.91192 5.51079 8.1821 5.1214 8.54545C4.74643 8.89535 4.43916 9.31181 4.24882 9.70786ZM28.6697 9.8361L28.7199 10.1635C28.8285 10.8712 28.6184 11.6809 28.2513 12.3644C27.8851 13.0462 27.3367 13.6506 26.7169 13.9126L26.475 14.0362L26.1474 13.9252C25.4872 13.7017 24.8735 13.1178 24.4421 12.439C24.0097 11.7586 23.7306 10.9362 23.7889 10.197L23.8281 9.88281L24.1388 9.9878C24.8658 10.3076 25.451 10.9113 25.8517 11.5845C26.1216 12.0378 26.3142 12.5334 26.4096 13.0128C26.4937 12.5262 26.6853 12.0106 26.9309 11.5488C27.2953 10.8634 27.8152 10.228 28.3686 9.9742L28.6697 9.8361ZM26.8806 13.2457C27.2306 12.991 27.5602 12.5945 27.8108 12.1278C28.0691 11.6469 28.228 11.1202 28.2466 10.6437C27.9388 10.8992 27.6266 11.3054 27.3723 11.7836C27.1131 12.2711 26.9349 12.7946 26.8806 13.2457ZM6.18599 9.84599L6.21343 10.1972C6.27117 10.9364 5.99184 11.7586 5.55928 12.439C5.12776 13.1178 4.51406 13.7017 3.8539 13.9252L3.60448 14.0097L3.55325 14.0271L3.52573 14.0154L3.2828 13.9126C2.66353 13.6505 2.11563 13.0463 1.74971 12.3646C1.38288 11.6811 1.1728 10.8715 1.28083 10.1637L1.32837 9.84599L1.63201 9.97412C2.18655 10.2279 2.70635 10.8635 3.07039 11.5489C3.31642 12.0122 3.50803 12.5296 3.5913 13.0174C3.68669 12.5367 3.87984 12.0393 4.15063 11.5845C4.55141 10.9113 5.13648 10.3076 5.86354 9.9878L6.18599 9.84599ZM1.75438 10.6434C1.77314 11.1202 1.93209 11.6471 2.19026 12.1281C2.44069 12.5946 2.76984 12.991 3.11942 13.2457C3.06547 12.7945 2.88769 12.2709 2.62881 11.7835C2.37477 11.3051 2.06258 10.8989 1.75438 10.6434ZM4.05298 13.2823C4.44789 13.0454 4.83309 12.6493 5.13733 12.1708C5.44738 11.6831 5.65511 11.1382 5.70778 10.6373C5.25502 10.9264 4.86947 11.3545 4.58025 11.8403C4.30113 12.3091 4.12013 12.8177 4.05298 13.2823ZM24.2942 10.6371C24.3465 11.138 24.5541 11.683 24.8641 12.1708C25.1684 12.6495 25.5537 13.0457 25.9488 13.2826C25.8821 12.818 25.7013 12.3093 25.4221 11.8403C25.1329 11.3544 24.7471 10.9262 24.2942 10.6371ZM6.30983 12.3875L6.41457 12.705C6.65414 13.4313 6.57495 14.3256 6.30649 15.1156C6.03861 15.9039 5.56431 16.6409 4.95621 17.0266L4.72534 17.173L4.69527 17.1921L4.65714 17.1879L4.38503 17.1583C3.62613 17.0757 2.82915 16.5975 2.2033 15.9713C1.57613 15.3437 1.08196 14.5288 0.968088 13.7245L0.931625 13.4129L1.24928 13.4417C1.93211 13.5345 2.70764 14.0553 3.33377 14.6877C3.82689 15.1858 4.26134 15.7873 4.50284 16.3742C4.46161 15.7946 4.55935 15.1367 4.75547 14.5297C5.01011 13.7417 5.44895 12.9832 6.0349 12.5778L6.30983 12.3875ZM1.55038 14.0355C1.72212 14.5858 2.08818 15.1488 2.55697 15.6178C3.01399 16.0752 3.54447 16.4193 4.04541 16.5765C3.83943 16.0697 3.45053 15.5163 2.97846 15.0395C2.51276 14.5691 1.99952 14.2068 1.55038 14.0355ZM5.00258 16.3523C5.34735 16.0151 5.64216 15.5166 5.83307 14.9547C6.02934 14.3772 6.10437 13.7659 6.02796 13.2423C5.69684 13.5916 5.41739 14.1074 5.23126 14.6835C5.0465 15.2553 4.96478 15.8524 5.00258 16.3523ZM25.3062 17.1916L25.3453 17.1874L25.6168 17.1578C26.3749 17.0751 27.1721 16.597 27.7982 15.9708C28.4256 15.3433 28.9202 14.5283 29.0332 13.7237L29.0792 13.3966L28.7519 13.4412C28.0691 13.5343 27.2935 14.0552 26.6674 14.6876C26.175 15.1849 25.7411 15.7854 25.4997 16.3715C25.5404 15.7925 25.4427 15.1358 25.247 14.5298C24.9925 13.7418 24.5539 12.9833 23.9685 12.5778L23.6961 12.404L23.5888 12.7049C23.3486 13.4312 23.4277 14.3255 23.6961 15.1156C23.9639 15.9039 24.4382 16.6408 25.046 17.0265L25.2766 17.1728L25.3062 17.1916ZM23.9751 13.2423C23.8984 13.7659 23.9733 14.3772 24.1696 14.9548C24.3604 15.5165 24.6551 16.015 24.9997 16.3521C25.0375 15.8523 24.9558 15.2552 24.7712 14.6834C24.5851 14.1074 24.3059 13.5916 23.9751 13.2423ZM25.9562 16.576C26.4568 16.4187 26.9874 16.0746 27.4446 15.6173C27.9137 15.1481 28.2798 14.5852 28.4512 14.0351C28.0019 14.2065 27.4885 14.5689 27.0227 15.0394C26.5506 15.5162 26.1619 16.0694 25.9562 16.576ZM6.74833 15.0343L6.94568 15.3462C7.35077 15.9866 7.49004 16.8631 7.42248 17.6851C7.35507 18.5053 7.07707 19.3257 6.58612 19.8428L6.37683 20.0632L6.3342 20.0701L6.06324 20.1137C5.34113 20.23 4.4837 19.989 3.74796 19.569C3.01055 19.1482 2.34722 18.5203 2.03872 17.8054L1.92317 17.5L2.23514 17.4585C2.89192 17.3708 3.74111 17.6562 4.47825 18.0814C5.06509 18.4199 5.62383 18.8717 5.99443 19.3596C5.56354 18.1748 5.66117 16.5362 6.53189 15.3333L6.74833 15.0343ZM2.6857 17.9539C2.98211 18.4079 3.45423 18.8257 3.99581 19.1348C4.52311 19.4358 5.08723 19.6173 5.57965 19.6404C5.26411 19.2332 4.77474 18.8296 4.22842 18.5145C3.69023 18.2041 3.13671 18.0023 2.6857 17.9539ZM23.2523 15.0343L23.4688 15.3332C24.3404 16.536 24.4391 18.1747 24.0069 19.3598C24.3776 18.8718 24.9363 18.42 25.5231 18.0814C26.2601 17.6562 27.1091 17.3708 27.7656 17.4585L28.0925 17.5023L27.9621 17.8052C27.6544 18.5203 26.9909 19.1482 26.2534 19.5691C25.5176 19.989 24.6599 20.23 23.938 20.1137L23.6228 20.063L23.6044 20.0435L23.4143 19.8424C22.9252 19.3252 22.6474 18.5051 22.5796 17.685C22.5118 16.8632 22.6502 15.9867 23.0551 15.3463L23.2523 15.0343ZM23.2904 15.9854C23.8443 16.9987 23.8744 18.2606 23.539 19.1836C23.2895 18.7774 23.1262 18.2285 23.0779 17.6439C23.0293 17.0554 23.1001 16.464 23.2904 15.9854ZM6.46244 19.184C6.12794 18.2608 6.1576 16.9988 6.71065 15.9854C6.90131 16.4642 6.97253 17.0557 6.92416 17.6442C6.87609 18.229 6.7127 18.778 6.46244 19.184ZM24.4218 19.6403C24.9141 19.6172 25.4783 19.4357 26.0056 19.1348C26.5474 18.8256 27.0195 18.4078 27.3155 17.9539C26.8646 18.0022 26.3112 18.204 25.773 18.5145C25.2268 18.8296 24.7375 19.2331 24.4218 19.6403ZM7.86374 17.737L8.14441 17.9895C8.68324 18.4744 9.03612 19.2454 9.18547 20.018C9.33449 20.7889 9.29117 21.6154 8.97544 22.218L8.78104 22.4914L8.52127 22.6095C7.88176 22.9002 7.02761 22.893 6.24189 22.6901C5.45425 22.4866 4.68174 22.0727 4.2147 21.4878L4.00781 21.2287L4.31383 21.101C4.90154 20.8559 5.75964 20.9069 6.54748 21.114C7.18099 21.2806 7.81776 21.5608 8.28475 21.9238C7.58882 20.9423 7.28811 19.4087 7.74081 18.094L7.86374 17.737ZM22.1359 17.7371L22.2593 18.0936C22.7146 19.4088 22.4126 20.9426 21.7171 21.9241C22.184 21.5609 22.821 21.2806 23.4546 21.114C24.2424 20.9069 25.1005 20.8559 25.688 21.1011L25.9937 21.2286L25.7872 21.4876C25.3209 22.0727 24.5487 22.4866 23.7611 22.6901C22.9754 22.893 22.1211 22.9001 21.4811 22.6095L21.2214 22.4916L21.027 22.2183C20.7104 21.6156 20.6668 20.7891 20.8156 20.0183C20.9648 19.2457 21.3175 18.4747 21.8557 17.9897L22.1359 17.7371ZM8.09828 18.6819C7.88626 19.729 8.15724 20.8641 8.67613 21.6112C8.79209 21.1817 8.79825 20.6493 8.69457 20.1129C8.59076 19.5759 8.3828 19.0663 8.09828 18.6819ZM21.3258 21.6115C21.2093 21.1819 21.203 20.6495 21.3065 20.1131C21.4102 19.576 21.6182 19.0662 21.9026 18.6816C22.1161 19.7287 21.8445 20.8641 21.3258 21.6115ZM9.61275 19.8453L9.93274 20.0195C10.5262 20.3425 11.0019 20.9588 11.2991 21.62C11.5961 22.2806 11.735 23.0311 11.6054 23.6482L11.5625 23.9023L11.506 23.9845L11.286 24.1833C10.7637 24.6556 9.94786 24.9103 9.13738 24.9574C8.32505 25.0046 7.46349 24.8466 6.83992 24.4322L6.53189 24.2622L6.81534 24.0344C7.29855 23.6191 8.13133 23.4051 8.94525 23.3616C9.6762 23.3226 10.4548 23.4176 11.0388 23.6784C10.0806 22.964 9.38463 21.5837 9.56535 20.2066L9.61275 19.8453ZM7.46761 24.2041C7.93709 24.4065 8.52287 24.4923 9.10837 24.4582C9.67716 24.4252 10.2138 24.2811 10.6175 24.0505C10.1562 23.8949 9.56406 23.8293 8.97193 23.8609C8.38927 23.892 7.85099 24.0148 7.46761 24.2041ZM20.3887 19.8454L20.4359 20.2066C20.6162 21.5845 19.9199 22.9655 18.9609 23.6796C19.5441 23.4178 20.3236 23.3225 21.0555 23.3616C21.8693 23.4051 22.7024 23.6191 23.1859 24.0344L23.4361 24.2493L23.1615 24.4321C22.5384 24.8469 21.677 25.0049 20.8648 24.9576C20.0545 24.9104 19.2388 24.6556 18.7167 24.1833L18.4963 23.9839L18.3958 23.6478C18.2674 23.031 18.4059 22.2808 18.7025 21.6201C18.9993 20.9589 19.4745 20.3425 20.0686 20.0194L20.3887 19.8454ZM18.848 23.1272C19.4791 22.5656 19.9473 21.65 19.964 20.6992C19.6401 20.9786 19.3593 21.3779 19.1586 21.8248C18.9619 22.2631 18.8531 22.7232 18.848 23.1272ZM10.0372 20.6993C10.0536 21.6503 10.5224 22.5661 11.1538 23.1277C11.1492 22.7238 11.0402 22.2635 10.8431 21.825C10.6422 21.378 10.361 20.9787 10.0372 20.6993ZM4.8835 21.4636C5.26865 21.7991 5.79987 22.0595 6.36695 22.2059C6.91851 22.3484 7.47274 22.3753 7.92584 22.2791C7.53591 21.991 6.9934 21.7482 6.42035 21.5976C5.85714 21.4495 5.3072 21.4015 4.8835 21.4636ZM22.0764 22.279C22.5299 22.3753 23.0844 22.3484 23.636 22.2059C24.2031 22.0594 24.734 21.7991 25.1187 21.4636C24.6951 21.4015 24.145 21.4495 23.5817 21.5976C23.0087 21.7482 22.4662 21.9909 22.0764 22.279ZM18.3204 21.191L18.2736 21.5297C18.1769 22.2305 17.7741 22.9184 17.2548 23.4573C16.8905 23.8353 16.4555 24.1539 16.0035 24.3561C16.5337 24.2909 17.1294 24.3446 17.6787 24.4768C18.4379 24.6595 19.1796 25.0094 19.5661 25.4845L19.7741 25.7401L19.4719 25.8715C18.8109 26.1588 17.9561 26.1608 17.1904 25.9778C16.4278 25.7956 15.6925 25.4151 15.2997 24.8714L15.1109 24.61L15.1253 24.2618C15.2345 23.585 15.616 22.8936 16.1247 22.3459C16.6329 21.7987 17.2928 21.3684 17.9834 21.2492L18.3204 21.191ZM11.682 21.1916L12.0189 21.2497C12.7095 21.369 13.3693 21.7991 13.8774 22.3462C14.3861 22.8939 14.7675 23.5852 14.877 24.2622L14.8908 24.6105L14.7025 24.871C14.3095 25.4146 13.5742 25.7951 12.8116 25.9773C12.0458 26.1603 11.1909 26.1583 10.5295 25.8711L10.2269 25.7396L10.4353 25.4838C10.8221 25.0091 11.5642 24.6593 12.3237 24.4767C12.8724 24.3447 13.4672 24.2908 13.9967 24.3555C13.5454 24.1531 13.1111 23.8349 12.7474 23.4574C12.228 22.9186 11.8251 22.2308 11.7287 21.5302L11.682 21.1916ZM15.7234 23.9322C16.1295 23.7653 16.5422 23.4761 16.8947 23.1103C17.2586 22.7328 17.542 22.2906 17.6876 21.8472C17.2621 22.0076 16.8442 22.3059 16.4911 22.6861C16.1435 23.0603 15.873 23.4987 15.7234 23.9322ZM12.3146 21.8476C12.4601 22.2908 12.7435 22.7329 13.1074 23.1105C13.4599 23.4762 13.8726 23.7654 14.2788 23.9325C14.1291 23.4989 13.8585 23.0606 13.511 22.6865C13.1579 22.3062 12.7401 22.008 12.3146 21.8476ZM19.3849 24.0503C19.7884 24.2811 20.3251 24.4253 20.8939 24.4584C21.4792 24.4925 22.0648 24.4068 22.5338 24.2043C22.1502 24.0149 21.6116 23.892 21.0288 23.8609C20.4368 23.8293 19.8451 23.8949 19.3849 24.0503ZM11.11 25.5345C11.5846 25.6407 12.1512 25.621 12.6954 25.491C13.2256 25.3643 13.6996 25.1415 14.0271 24.8644C13.5592 24.7916 12.9904 24.8305 12.4406 24.9628C11.91 25.0904 11.4362 25.2954 11.11 25.5345ZM15.975 24.8648C16.3024 25.1419 16.7764 25.3648 17.3066 25.4915C17.8508 25.6215 18.4174 25.6412 18.8917 25.535C18.5658 25.2957 18.0922 25.0906 17.5617 24.9629C17.012 24.8306 16.4432 24.7917 15.975 24.8648Z" fill="#FF0000"/>
</svg>
